<svg xmlns="http://www.w3.org/2000/svg" viewBox="0 0 665.70749 665.71128" width="100%" height="100%">
  <g transform="translate(-5761.7289,1161.6757)">
    <path fill="#1A1A1A" d="m 6355.835,-1090.0766 c -95.465,-95.4653 -251.9647,-95.4653 -347.4297,-10e-5 -47.8654,47.8654 -71.7318,111.07359 -71.5987,174.23979 0.026,12.60306 1.0084,25.20485 2.9458,37.6824 7.7187,49.7122 30.6033,97.45812 68.6529,135.50764 v 0.001 c 18.2367,18.2368 25.7612,42.5353 22.575,65.77477 -0.8427,-0.52864 -1.6823,-1.0623 -2.5205,-1.60069 0.8381,0.53921 1.6779,1.07394 2.5205,1.60342 -2.239,16.32637 -9.7644,32.1296 -22.5763,44.94136 -31.0493,31.04897 -79.67,31.04802 -110.7188,-10e-4 -31.0487,-31.04893 -31.0487,-79.66854 -1e-4,-110.71748 12.9493,-12.94958 28.9561,-20.49713 45.469,-22.64535 0.5112,0.78147 1.0306,1.55823 1.5343,2.34368 -0.5045,-0.78395 -1.0135,-1.56444 -1.5247,-2.3451 v -10e-4 c -0.5393,-0.82357 -1.0812,-1.64558 -1.6227,-2.46792 -0.518,-0.78653 -1.0332,-1.5754 -1.5483,-2.36306 -2.3149,-3.53936 -4.5807,-7.09981 -6.5766,-10.78338 v -0.001 c -6.7248,-12.46593 -12.4765,-25.33302 -17.2371,-38.48074 v -10e-4 c -4.7605,-13.14778 -8.5281,-26.57673 -11.2805,-40.16698 v -0.001 l -0.2569,-0.25689 v -10e-4 c -0.8103,-4.02248 -1.531,-8.05777 -2.1654,-12.10364 -31.2109,8.41793 -60.6485,24.78437 -84.9634,49.09971 -74.3784,74.37927 -74.3784,196.69135 0,271.0705 74.379,74.38021 196.6919,74.38046 271.0719,10e-4 24.3151,-24.31469 40.6807,-53.75148 49.0983,-84.96194 3.2965,-12.22227 5.3743,-24.71674 6.2328,-37.28195 3.6557,-53.50049 -14.788,-108.28636 -55.3311,-148.82934 -20.4206,-20.42059 -32.8418,-45.54692 -37.2654,-71.69268 -6.87,-40.60554 5.5512,-83.66994 37.2654,-115.38403 52.1347,-52.1348 134.942,-52.1348 187.0767,0 52.1348,52.13479 52.1349,134.942 0,187.0767 -31.7142,31.71423 -74.7785,44.13536 -115.3841,37.26535 16.8707,35.88503 23.9963,75.35338 21.3458,114.13971 l -0.025,0.37017 c 63.166,0.13275 126.3747,-23.73366 174.2396,-71.59873 95.4653,-95.465 95.4652,-251.9646 0,-347.4297 z m -345.4285,398.85103 c -9.9552,-7.57965 -19.6625,-15.63248 -28.7262,-24.69626 9.068,9.06797 18.7636,17.1292 28.7262,24.69626 z"/>
  </g>
</svg>
